<svg width="218" height="162" viewBox="0 0 218 162" fill="none" xmlns="http://www.w3.org/2000/svg">
<path fill-rule="evenodd" clip-rule="evenodd" d="M23.8851 96.7165C23.8851 96.7165 87.1394 -26.4041 95.6109 11.0116C104.082 48.428 116.755 53.1418 157.704 21.1169C198.654 -10.908 250.92 -11.7492 167.344 67.3974C83.7681 146.546 -25.6259 162.612 23.8851 96.7165Z" fill="#DAF2ED"/>
<path d="M129.164 56.2836C131.975 56.2836 134.253 54.0049 134.253 51.194C134.253 48.3832 131.975 46.1045 129.164 46.1045C126.353 46.1045 124.074 48.3832 124.074 51.194C124.074 54.0049 126.353 56.2836 129.164 56.2836Z" stroke="#DEDEDE" stroke-width="2"/>
<path d="M140.529 41.1871L139.224 39.8408C139.094 39.7053 138.918 39.6283 138.733 39.627C138.548 39.6257 138.37 39.7001 138.239 39.8338L130.043 48.1708L126.577 44.5878C126.448 44.4539 126.273 44.3779 126.09 44.3766C125.906 44.3753 125.73 44.4487 125.6 44.5808L124.28 45.9201C124.008 46.1977 124.005 46.6483 124.273 46.9298L129.537 52.3709C129.808 52.6498 130.247 52.653 130.521 52.3779L140.522 42.1968C140.655 42.0642 140.73 41.883 140.731 41.6934C140.732 41.5038 140.66 41.3216 140.529 41.1871Z" fill="#1ABC9C"/>
<path d="M96.3527 48.8806H4.6622C2.63962 48.8806 1 50.5202 1 52.5428V56.3229C1 58.3455 2.63962 59.9851 4.6622 59.9851H96.3527C98.3753 59.9851 100.015 58.3455 100.015 56.3229V52.5428C100.015 50.5202 98.3753 48.8806 96.3527 48.8806Z" fill="#F2F2F2" stroke="#BEBEBE" stroke-width="0.5"/>
<path d="M96.3527 68.3135H4.6622C2.63962 68.3135 1 69.9531 1 71.9757V75.7558C1 77.7783 2.63962 79.418 4.6622 79.418H96.3527C98.3753 79.418 100.015 77.7783 100.015 75.7558V71.9757C100.015 69.9531 98.3753 68.3135 96.3527 68.3135Z" fill="#F2F2F2" stroke="#BEBEBE" stroke-width="0.5"/>
<path d="M96.3527 87.7463H4.6622C2.63962 87.7463 1 89.386 1 91.4085V95.1886C1 97.2112 2.63962 98.8508 4.6622 98.8508H96.3527C98.3753 98.8508 100.015 97.2112 100.015 95.1886V91.4085C100.015 89.386 98.3753 87.7463 96.3527 87.7463Z" fill="#F2F2F2" stroke="#BEBEBE" stroke-width="0.5"/>
<path d="M96.3527 107.179H4.6622C2.63962 107.179 1 108.819 1 110.841V114.621C1 116.644 2.63962 118.284 4.6622 118.284H96.3527C98.3753 118.284 100.015 116.644 100.015 114.621V110.841C100.015 108.819 98.3753 107.179 96.3527 107.179Z" fill="#F2F2F2" stroke="#BEBEBE" stroke-width="0.5"/>
<path d="M129.164 76.6418C131.975 76.6418 134.253 74.3631 134.253 71.5522C134.253 68.7413 131.975 66.4626 129.164 66.4626C126.353 66.4626 124.074 68.7413 124.074 71.5522C124.074 74.3631 126.353 76.6418 129.164 76.6418Z" stroke="#DEDEDE" stroke-width="2"/>
<path d="M129.164 95.1493C131.975 95.1493 134.253 92.8706 134.253 90.0598C134.253 87.2489 131.975 84.9702 129.164 84.9702C126.353 84.9702 124.074 87.2489 124.074 90.0598C124.074 92.8706 126.353 95.1493 129.164 95.1493Z" stroke="#DEDEDE" stroke-width="2"/>
<path d="M129.164 115.507C131.975 115.507 134.253 113.229 134.253 110.418C134.253 107.607 131.975 105.328 129.164 105.328C126.353 105.328 124.074 107.607 124.074 110.418C124.074 113.229 126.353 115.507 129.164 115.507Z" stroke="#DEDEDE" stroke-width="2"/>
<path d="M140.529 61.5453L139.224 60.199C139.094 60.0634 138.918 59.9864 138.733 59.9851C138.548 59.9838 138.37 60.0583 138.239 60.192L130.043 68.529L126.577 64.946C126.448 64.812 126.273 64.736 126.09 64.7347C125.906 64.7334 125.73 64.8069 125.6 64.939L124.28 66.2782C124.008 66.5559 124.005 67.0064 124.273 67.2879L129.537 72.7291C129.808 73.008 130.247 73.0111 130.521 72.7361L140.522 62.555C140.655 62.4224 140.73 62.2412 140.731 62.0516C140.732 61.862 140.66 61.6797 140.529 61.5453Z" fill="#1ABC9C"/>
<path d="M140.529 100.411L139.224 99.0647C139.094 98.9291 138.918 98.8522 138.733 98.8508C138.548 98.8495 138.37 98.924 138.239 99.0577L130.043 107.395L126.577 103.812C126.448 103.678 126.273 103.602 126.09 103.6C125.906 103.599 125.73 103.673 125.6 103.805L124.28 105.144C124.008 105.422 124.005 105.872 124.273 106.154L129.537 111.595C129.808 111.874 130.247 111.877 130.521 111.602L140.522 101.421C140.655 101.288 140.73 101.107 140.731 100.917C140.732 100.728 140.66 100.545 140.529 100.411Z" fill="#1ABC9C"/>
<path d="M177.284 160.851C195.938 160.851 211.06 158.572 211.06 155.761C211.06 152.95 195.938 150.672 177.284 150.672C158.63 150.672 143.508 152.95 143.508 155.761C143.508 158.572 158.63 160.851 177.284 160.851Z" fill="#F2F2F2"/>
<path d="M198.451 58.7085C198.354 58.5991 198.255 58.4927 198.152 58.3893C198.938 57.5056 199.751 56.5994 199.744 55.4637C199.735 54.0834 198.5 53.0245 198.039 51.7197C197.411 49.944 198.282 48.0417 198.641 46.1961C199.205 43.16 198.374 40.0325 196.375 37.666C196.012 37.2408 195.591 36.8296 195.051 36.6609C194.229 36.4041 193.355 36.7609 192.499 36.8657C189.674 37.2116 187.103 34.7976 184.264 35.0137C184.076 35.0205 183.89 35.0616 183.717 35.135C183.35 35.3092 183.151 35.6936 182.924 36.025C182.042 37.3116 180.561 37.951 179.087 38.6119C178.902 38.6658 178.726 38.746 178.564 38.8499C178.121 39.0542 177.686 39.2671 177.275 39.5084C174.493 41.141 174.896 43.4252 176.537 44.8361C176.216 46.42 174.583 47.8148 174.864 49.4433C175.085 50.7199 176.426 51.5887 176.684 52.8585C176.834 53.596 176.598 54.2988 176.27 54.9965C173.157 55.7108 169.64 57.0262 169.365 59.3477C168.888 63.3864 167.451 74.5406 167.451 74.5406C167.451 74.5406 165.786 83.4776 172.113 79.2528L172.031 79.4906C170.891 82.9128 170.113 86.4432 169.709 90.0249C169.645 90.5576 169.516 90.9775 169.282 91.1146C169.197 91.1643 169.365 91.2431 169.731 91.3416C169.689 91.4919 169.645 91.6414 169.605 91.7922C168.91 94.4042 168.466 97.0755 168.278 99.7705C168.1 102.158 167.768 104.531 167.284 106.876C165.786 114.351 167.284 123.938 167.284 123.938L170.554 139.202L171.114 141.812C171.483 142.217 171.935 142.54 172.439 142.76C172.658 143.695 172.81 144.645 172.893 145.601C172.902 145.707 172.909 145.815 172.916 145.923C172.52 145.973 172.165 146.193 171.946 146.524C170.781 148.149 172.113 149.449 167.617 152.699C166.456 153.538 165.896 154.301 165.754 154.95V154.95C165.601 155.648 165.933 156.213 166.526 156.595L166.527 156.596C166.628 156.661 166.733 156.719 166.842 156.77L166.847 156.773C166.902 156.799 166.958 156.823 167.016 156.847L167.017 156.847C167.074 156.871 167.134 156.893 167.194 156.914L167.205 156.917C167.261 156.937 167.319 156.955 167.378 156.972L167.391 156.976C167.452 156.993 167.514 157.01 167.578 157.025C167.583 157.026 167.588 157.027 167.594 157.028C167.652 157.042 167.71 157.054 167.77 157.065C167.778 157.067 167.785 157.069 167.793 157.07C167.857 157.082 167.921 157.092 167.986 157.101C167.993 157.102 168 157.103 168.007 157.104C168.065 157.112 168.124 157.119 168.183 157.125C168.194 157.126 168.206 157.127 168.217 157.128C168.282 157.134 168.347 157.139 168.413 157.142C168.421 157.143 168.43 157.143 168.438 157.144C168.497 157.146 168.555 157.148 168.614 157.149C168.628 157.149 168.641 157.149 168.655 157.149C168.721 157.149 168.787 157.149 168.853 157.146C168.862 157.146 168.87 157.146 168.879 157.145C168.938 157.143 168.996 157.14 169.055 157.135C169.071 157.134 169.086 157.133 169.102 157.132C169.168 157.126 169.234 157.12 169.3 157.112C169.308 157.111 169.316 157.11 169.323 157.109C169.383 157.101 169.442 157.092 169.501 157.083C169.517 157.08 169.534 157.077 169.55 157.075C169.616 157.063 169.681 157.051 169.746 157.037C169.753 157.036 169.759 157.034 169.765 157.033C169.825 157.02 169.884 157.005 169.944 156.99C169.96 156.985 169.977 156.981 169.994 156.977C170.058 156.959 170.123 156.941 170.187 156.92L170.197 156.917C170.258 156.897 170.318 156.876 170.378 156.854C170.394 156.848 170.411 156.842 170.427 156.836C170.49 156.812 170.552 156.788 170.614 156.761C173.611 155.461 179.771 152.049 179.771 152.049L179.771 152.018L179.771 151.997L179.77 151.967L179.77 151.94L179.77 151.892L179.769 151.85C179.769 151.833 179.769 151.816 179.769 151.797L179.768 151.748C179.768 151.725 179.768 151.703 179.767 151.678C179.767 151.661 179.767 151.642 179.766 151.625C179.766 151.598 179.766 151.573 179.765 151.545C179.764 151.5 179.763 151.453 179.762 151.403C179.732 149.983 179.59 146.722 178.938 146.849C178.716 146.892 178.565 147.202 178.409 147.558C178.384 147.511 178.359 147.463 178.332 147.413C177.698 146.199 176.78 144.117 176.69 142.082C177.202 141.714 177.677 141.297 178.106 140.837C178.106 140.837 177.771 139.439 177.487 137.966C177.24 136.688 177.03 135.353 177.107 134.825C177.274 133.687 175.109 124.913 175.109 124.913C175.109 124.913 175.332 122.982 175.78 120.3C176.651 115.085 178.366 107.027 180.925 104.749C180.984 104.697 181.043 104.647 181.103 104.601C181.103 104.601 182.934 104.926 184.432 115.163L184.867 119.723C184.991 120.985 185.207 122.238 185.513 123.47C185.96 125.434 186.101 127.455 185.931 129.462C185.741 132.15 185.659 135.314 185.624 137.535C185.598 139.209 185.598 140.349 185.598 140.349C185.908 140.609 186.242 140.838 186.597 141.034V142.525C186.593 142.841 186.468 143.144 186.246 143.372L186.24 143.378C186.004 143.642 185.832 143.955 185.738 144.295C185.447 144.814 185.201 145.656 185.098 147.011C184.765 151.399 184.599 150.911 184.599 150.911C184.408 151.386 184.281 151.883 184.221 152.391V152.391C184.212 152.486 184.206 152.581 184.204 152.677C184.204 152.692 184.204 152.707 184.204 152.722C184.204 152.766 184.205 152.809 184.206 152.853C184.207 152.874 184.208 152.896 184.21 152.917C184.212 152.95 184.215 152.982 184.218 153.014C184.221 153.043 184.225 153.072 184.229 153.101C184.232 153.121 184.235 153.142 184.238 153.162C184.245 153.201 184.253 153.24 184.262 153.278C184.266 153.295 184.271 153.312 184.275 153.328C184.286 153.368 184.297 153.407 184.311 153.446C184.315 153.458 184.32 153.47 184.324 153.482C184.337 153.517 184.352 153.551 184.368 153.585C184.372 153.595 184.377 153.606 184.382 153.616C184.401 153.655 184.423 153.693 184.446 153.73C184.452 153.74 184.459 153.75 184.466 153.761C184.49 153.798 184.517 153.833 184.545 153.867C184.552 153.875 184.559 153.883 184.566 153.891C184.597 153.927 184.631 153.961 184.666 153.993C184.67 153.996 184.674 153.999 184.678 154.003C184.715 154.034 184.753 154.064 184.793 154.091C184.799 154.095 184.805 154.1 184.812 154.104C184.856 154.132 184.901 154.158 184.948 154.181C184.958 154.186 184.967 154.191 184.977 154.195C185.028 154.219 185.08 154.24 185.133 154.258C185.142 154.261 185.152 154.264 185.161 154.267C185.222 154.287 185.284 154.303 185.346 154.316L185.353 154.318C185.418 154.331 185.487 154.341 185.558 154.349C185.568 154.35 185.578 154.351 185.588 154.352C185.659 154.359 185.734 154.363 185.812 154.364C185.826 154.365 185.841 154.365 185.856 154.365C185.935 154.365 186.017 154.363 186.103 154.357C186.117 154.356 186.13 154.355 186.144 154.354C186.236 154.347 186.33 154.337 186.43 154.323C189.926 153.836 191.591 153.511 191.425 151.561C191.324 150.386 191.043 148.679 190.835 147.509C190.729 146.914 190.535 146.338 190.259 145.8C190.267 145.709 190.275 145.615 190.283 145.518C190.343 144.712 190.339 143.753 190.093 143.112L190.17 141.689C191.037 141.471 191.821 141.005 192.424 140.349C192.424 140.349 192.449 139.295 192.522 137.897C192.632 135.738 192.852 132.758 193.256 131.575C193.922 129.625 193.256 122.8 193.256 122.8C193.256 122.8 190.759 111.101 193.09 106.064C195.146 101.62 195.128 97.1755 193.15 92.8433C193.189 92.8127 193.225 92.7779 193.256 92.7395C193.256 92.7395 192.757 92.4145 192.923 88.6773C193.05 85.825 192.208 82.8802 191.802 81.6444C192.439 81.9148 193.091 82.1471 193.756 82.3401C197.585 83.4776 197.918 79.2528 197.918 79.2528L198.75 72.9157L199.737 63.4697L199.737 63.4693C200.008 62.7282 200.371 60.8773 198.451 58.7085ZM181.526 52.4473C181.522 52.5518 181.515 52.6564 181.504 52.7603C181.473 53.0965 181.401 53.4278 181.291 53.7469C181.404 53.3157 181.474 52.8741 181.497 52.4289C181.507 52.4351 181.517 52.4411 181.526 52.4473V52.4473ZM191.591 75.5155C191.65 75.6228 191.707 75.7272 191.761 75.8299L191.34 75.6171C191.496 74.8508 191.748 74.1071 192.091 73.4031C192.504 72.584 192.845 71.7304 193.108 70.8523C193.097 71.8671 193.146 72.8817 193.256 73.8906C193.589 76.4905 191.591 75.5155 191.591 75.5155Z" fill="url(#paint0_linear)"/>
<path d="M177.406 40.7345C176.877 41.0888 176.325 41.4983 176.136 42.0994C175.833 43.0688 176.595 44.0421 176.67 45.0537C176.807 46.893 174.69 48.4132 175.002 50.2318C175.216 51.4783 176.516 52.3267 176.767 53.5666C177.132 55.3749 175.137 56.9696 175.294 58.8068C175.378 59.7854 176.071 60.6164 176.857 61.2229C177.96 62.0713 179.28 62.6036 180.672 62.7613C180.579 61.1882 179.392 59.7569 179.596 58.194C179.736 57.1222 180.503 56.2459 180.947 55.2574C181.726 53.5218 181.477 51.5129 181.009 49.6723C180.542 47.8317 179.867 46.0122 179.833 44.1155C179.812 42.9738 180.357 41.2956 179.958 40.2122C179.471 38.8952 178.312 40.1275 177.406 40.7345Z" fill="#A4882F"/>
<path d="M179.596 148.387L178.01 149.753C178.01 149.753 172.37 152.334 173.075 148.842C173.268 147.804 173.308 146.75 173.196 145.703C173.051 144.242 172.714 142.799 172.193 141.403L177.481 140.492C176.602 142.873 178.051 145.87 178.955 147.396C179.32 148.01 179.596 148.387 179.596 148.387Z" fill="#EC6F6D"/>
<path d="M189.744 145.268C189.708 145.768 189.646 146.266 189.56 146.76C189.56 146.76 185.523 149.52 185.2 146.435C184.99 144.425 185.465 143.517 185.823 143.129L185.829 143.123C186.044 142.894 186.166 142.592 186.169 142.277V138.642L189.721 139.778L189.56 142.863C189.799 143.504 189.802 144.462 189.744 145.268Z" fill="#EC6F6D"/>
<path opacity="0.05" d="M179.597 148.126L178.036 149.648C178.036 149.648 172.485 152.524 173.179 148.634C173.369 147.477 173.409 146.302 173.299 145.135C174.515 144.961 175.954 146.265 175.954 146.265C177.987 149.063 178.535 148.004 178.965 147.021C179.324 147.707 179.597 148.126 179.597 148.126Z" fill="black"/>
<path d="M176.248 147.133C176.248 147.133 173.946 145.046 172.796 146.652C171.645 148.257 172.96 149.541 168.521 152.752C164.081 155.962 168.521 158.049 171.48 156.765C174.44 155.481 180.523 152.11 180.523 152.11C180.523 152.11 180.523 146.812 179.701 146.973C178.879 147.133 179.043 150.986 176.248 147.133Z" fill="#3F3D56"/>
<path opacity="0.05" d="M189.775 145.445C189.739 145.911 189.677 146.376 189.59 146.836C189.59 146.836 185.526 149.41 185.2 146.534C184.989 144.659 185.467 143.813 185.828 143.451C186.116 143.249 186.5 143.212 186.826 143.354C187.476 143.085 188.192 143.535 188.784 144.116C189.185 144.51 189.519 144.958 189.775 145.445Z" fill="black"/>
<path d="M187.356 144.281C187.356 144.281 185.482 143.367 185.141 147.479C184.8 151.592 184.63 151.135 184.63 151.135C184.63 151.135 182.926 154.791 186.504 154.334C190.082 153.877 191.786 153.572 191.616 151.744C191.513 150.643 191.225 149.043 191.012 147.946C190.809 146.859 190.251 145.85 189.408 145.046C188.787 144.461 188.038 144.01 187.356 144.281Z" fill="#3F3D56"/>
<path d="M193.039 123.012C193.039 123.012 193.699 129.83 193.039 131.778C192.638 132.96 192.42 135.937 192.311 138.095C192.239 139.491 192.214 140.544 192.214 140.544C189.08 143.791 185.45 140.544 185.45 140.544C185.45 140.544 185.45 139.405 185.476 137.733C185.511 135.514 185.592 132.353 185.78 129.668C185.948 127.663 185.809 125.644 185.366 123.68C185.063 122.449 184.849 121.198 184.726 119.937L184.295 115.382C182.81 105.154 180.996 104.829 180.996 104.829C180.936 104.875 180.878 104.925 180.819 104.977C178.283 107.253 176.584 115.304 175.721 120.513C175.278 123.193 175.056 125.122 175.056 125.122C175.056 125.122 177.201 133.888 177.036 135.025C176.96 135.552 177.168 136.887 177.412 138.163C177.694 139.635 178.026 141.031 178.026 141.031C173.902 145.415 171.097 142.006 171.097 142.006L170.543 139.398L167.302 124.148C167.302 124.148 165.818 114.57 167.302 107.102C167.782 104.759 168.111 102.387 168.287 100.003C168.473 97.3116 169.839 94.6431 170.528 92.0321C170.729 91.2593 170.952 90.4926 171.197 89.7317C171.197 89.7317 176.467 88.6716 182.301 88.6716C186.676 88.6716 190.846 89.2674 192.049 91.3551C192.326 91.8357 192.578 92.3173 192.805 92.8C194.893 97.2173 194.956 101.755 192.874 106.291C190.564 111.323 193.039 123.012 193.039 123.012Z" fill="#3F3D56"/>
<path d="M179.619 64.6119C179.619 64.6119 170.8 55.7574 177.456 56.4133C178.965 56.5625 179.987 56.2968 180.664 55.7984C181.436 55.231 181.761 54.362 181.85 53.4552C182.034 51.6466 181.283 49.6904 181.283 49.6904C181.283 49.6904 190.268 42.6396 188.438 51.4941C188.237 52.3939 188.12 53.31 188.088 54.2308C188.059 56.1099 188.686 56.8297 189.566 57.1249C191.05 57.625 193.257 56.9249 194.262 58.5449C196.092 61.4964 179.619 64.6119 179.619 64.6119Z" fill="#E46B69"/>
<path d="M192.552 46.5692C192.55 50.4018 189.444 53.5076 185.612 53.5076C181.781 53.5076 178.674 50.4018 178.672 46.5692C178.672 46.4401 178.675 46.3109 178.683 46.1833C178.892 42.4303 182.049 39.5252 185.805 39.6297C189.562 39.7342 192.553 42.8103 192.552 46.5692Z" fill="#F77572"/>
<path opacity="0.05" d="M179.619 63.6865C179.619 63.6865 170.8 55.3194 177.456 55.9392C178.965 56.0802 179.987 55.8292 180.664 55.3582C179.376 57.3477 177.927 60.9254 184.445 60.5876C190.41 60.2792 190.308 58.0651 189.566 56.6117C191.05 57.0843 193.257 56.4226 194.262 57.9535C196.092 60.7425 179.619 63.6865 179.619 63.6865Z" fill="black"/>
<path opacity="0.1" d="M193.478 93.5115C191.996 95.4504 173.106 92.9083 170.344 92.0643C170.542 91.2841 170.763 90.51 171.005 89.7419C171.005 89.7419 177.12 88.6716 182.878 88.6716C187.197 88.6716 191.314 89.2731 192.501 91.3808C192.775 91.866 193.023 92.3522 193.247 92.8395C193.351 93.4262 193.478 93.5115 193.478 93.5115Z" fill="black"/>
<path d="M181.817 54.4329C181.817 54.4329 171.005 55.3186 170.525 59.5055C170.065 63.508 168.683 74.5623 168.683 74.5623C168.683 74.5623 167.081 83.4192 173.168 79.2323L173.089 79.468C171.992 82.8621 171.243 86.3603 170.855 89.9079C170.794 90.4359 170.67 90.852 170.445 90.9879C169.644 91.471 191.908 94.6917 193.51 92.5982C193.51 92.5982 193.029 92.2761 193.189 88.5723C193.349 84.8685 191.908 81.0037 191.908 81.0037C191.908 81.0037 190.626 77.1388 192.388 73.435C194.15 69.7312 193.51 68.604 193.51 68.604L199.596 63.9339C199.596 63.9339 200.911 61.6684 198.508 58.872C197.05 57.2012 194.992 56.1817 192.787 56.038L188.588 55.7378C188.588 55.7378 193.189 60.7132 184.54 61.1963C175.89 61.6794 181.817 54.4329 181.817 54.4329Z" fill="#1ABC9C"/>
<path opacity="0.05" d="M173.966 63.6865C173.966 63.6865 174.28 66.2717 173.651 67.0796C173.022 67.8874 172.865 71.6036 173.651 73.8656" fill="black"/>
<path opacity="0.1" d="M180.523 105.38C178.303 107.677 176.815 115.802 176.06 121.06C175.008 113.741 179.378 101.627 179.378 101.627L180.523 105.38Z" fill="black"/>
<path opacity="0.1" d="M178.673 141.241C174.592 145.213 171.818 142.124 171.818 142.124L171.27 139.761C172.812 140.484 175.418 141.044 178.065 138.642C178.344 139.976 178.673 141.241 178.673 141.241Z" fill="black"/>
<path opacity="0.1" d="M193.477 138.11C193.399 139.628 193.372 140.774 193.372 140.774C189.99 144.305 186.074 140.774 186.074 140.774C186.074 140.774 186.074 139.535 186.103 137.716C187.571 138.641 190.211 139.66 193.477 138.11Z" fill="black"/>
<path d="M185.539 68.3135H175.507C175.211 68.3135 174.971 68.5536 174.971 68.8497V72.4041C174.971 72.7003 175.211 72.9403 175.507 72.9403H185.539C185.835 72.9403 186.075 72.7003 186.075 72.4041V68.8497C186.075 68.5536 185.835 68.3135 185.539 68.3135Z" fill="#CDD0DB"/>
<path opacity="0.05" d="M185.539 68.3135H175.507C175.211 68.3135 174.971 68.5536 174.971 68.8497V72.4041C174.971 72.7003 175.211 72.9403 175.507 72.9403H185.539C185.835 72.9403 186.075 72.7003 186.075 72.4041V68.8497C186.075 68.5536 185.835 68.3135 185.539 68.3135Z" fill="black"/>
<path d="M185.539 69.2388H175.507C175.211 69.2388 174.971 69.4789 174.971 69.775V73.3294C174.971 73.6256 175.211 73.8656 175.507 73.8656H185.539C185.835 73.8656 186.075 73.6256 186.075 73.3294V69.775C186.075 69.4789 185.835 69.2388 185.539 69.2388Z" fill="#3F3D56"/>
<path d="M183.761 72.4777C184.272 72.4777 184.687 72.0634 184.687 71.5523C184.687 71.0413 184.272 70.627 183.761 70.627C183.25 70.627 182.836 71.0413 182.836 71.5523C182.836 72.0634 183.25 72.4777 183.761 72.4777Z" fill="#9DA7C0"/>
<path opacity="0.05" d="M170.477 75.6459C170.772 74.7762 171.44 74.0798 172.302 73.743C172.984 73.4926 173.544 72.9948 173.869 72.3506C174.506 70.9548 175.637 69.5159 178.544 70.4752C181.452 71.4345 177.737 72.074 177.737 72.074C177.737 72.074 184.36 71.1147 181.775 73.0334C179.191 74.952 175.96 76.0712 175.96 76.0712L174.369 77.7384C173.908 78.2311 173.256 78.5053 172.578 78.492C171.899 78.4786 171.259 78.179 170.818 77.6686C170.345 77.1043 170.215 76.3317 170.477 75.6459Z" fill="black"/>
<path d="M169.552 75.6459C169.847 74.7762 170.514 74.0798 171.377 73.743C172.058 73.4926 172.619 72.9948 172.943 72.3506C173.58 70.9548 174.711 69.5159 177.619 70.4752C180.526 71.4345 176.811 72.074 176.811 72.074C176.811 72.074 183.434 71.1147 180.849 73.0334C178.265 74.952 175.034 76.0712 175.034 76.0712L173.443 77.7384C172.982 78.2311 172.33 78.5053 171.652 78.492C170.974 78.4786 170.333 78.179 169.892 77.6686C169.419 77.1043 169.289 76.3317 169.552 75.6459Z" fill="#F77572"/>
<path opacity="0.05" d="M192.552 78.6546L191.42 81.2687L189.971 80.2554L185.921 77.4244L183.172 75.7329C179.291 72.9651 183.172 72.5038 183.172 72.5038C181.717 71.8887 183.172 71.2736 183.172 71.2736C188.347 70.1972 187.377 74.1952 187.377 74.1952L190.655 75.8114L191.743 76.348L192.552 78.6546Z" fill="black"/>
<path d="M192.552 78.6546L191.42 81.2687L189.971 80.2554L185.921 77.4244L183.172 75.7329C179.291 72.9651 183.172 72.5038 183.172 72.5038C181.717 71.8887 183.172 71.2736 183.172 71.2736C188.347 70.1972 187.377 74.1952 187.377 74.1952L190.655 75.8114L191.743 76.348L192.552 78.6546Z" fill="#F77572"/>
<path opacity="0.05" d="M193.477 78.609L192.26 81.2685L190.701 80.2376C192.112 80.2829 193.778 79.6697 191.437 75.7163L192.608 76.2623L193.477 78.609Z" fill="black"/>
<path d="M199.632 62.7612L199.954 64.0406L198.964 73.4935L198.128 79.8353C198.128 79.8353 197.794 84.0632 193.952 82.9249C190.11 81.7866 189.775 80.6483 189.775 80.6483C189.775 80.6483 195.288 82.437 191.78 76.0953C191.78 76.0953 193.785 77.0709 193.451 74.4692C193.117 71.8674 193.451 67.3143 193.451 67.3143L199.632 62.7612Z" fill="#1ABC9C"/>
<path opacity="0.05" d="M192.552 46.6539C192.552 49.9361 190.307 52.7813 187.143 53.5076C186.91 52.8277 186.745 52.1512 186.915 51.4632C187.243 50.1281 188.766 49.1541 188.597 47.7896C188.582 47.636 188.529 47.4886 188.443 47.3615C188.102 46.9072 187.408 47.1327 186.855 47.2454C185.366 47.4951 183.924 46.5952 183.476 45.1374C182.211 46.3962 180.355 46.8311 178.672 46.2633C178.881 42.4645 182.04 39.5239 185.8 39.6297C189.559 39.7355 192.553 42.8492 192.552 46.6539Z" fill="black"/>
<path d="M182.982 45.5796C183.435 47.0133 184.895 47.8983 186.401 47.6523C186.961 47.5424 187.664 47.3205 188.009 47.7674C188.097 47.8916 188.15 48.0363 188.164 48.1871C188.337 49.5301 186.795 50.4875 186.463 51.8013C186.121 53.1542 187.123 54.4608 187.337 55.839C187.453 56.5929 187.33 57.3608 187.339 58.1234C187.348 58.8859 187.522 59.7051 188.097 60.2169C188.672 60.7288 189.735 60.7339 190.12 60.072C191.96 61.0277 191.225 63.99 192.622 65.5061C193.392 66.3422 194.66 66.5433 195.802 66.4362C196.07 66.4322 196.33 66.3496 196.55 66.199C196.739 66.0158 196.867 65.7799 196.916 65.5232C197.204 64.4503 197.154 63.3166 196.773 62.272C196.59 61.7727 196.327 61.2679 196.395 60.7412C196.478 60.3328 196.674 59.9548 196.962 59.6488C197.84 58.5783 199.039 57.5432 199.03 56.1678C199.022 54.8025 197.809 53.755 197.356 52.4643C196.739 50.7078 197.595 48.826 197.947 47.0004C198.503 44.0029 197.689 40.9169 195.722 38.5625C195.365 38.1419 194.952 37.7352 194.421 37.5682C193.615 37.3142 192.756 37.6671 191.916 37.7708C189.141 38.113 186.616 35.7251 183.828 35.9389C183.643 35.9456 183.461 35.9863 183.291 36.0589C182.931 36.2312 182.735 36.6114 182.512 36.9392C181.281 38.7481 178.862 39.2635 176.964 40.385C171.424 43.66 178.745 49.5886 182.982 45.5796Z" fill="#A4882F"/>
<path opacity="0.3" d="M171.479 156.145C169.558 156.961 167.013 156.386 166.679 155.024C166.276 156.823 169.284 157.705 171.479 156.773C174.439 155.517 180.523 152.22 180.523 152.22C180.523 152.22 180.523 151.977 180.515 151.597C180.338 151.693 174.395 154.908 171.479 156.145Z" fill="white"/>
<path opacity="0.3" d="M191.607 151.597C191.411 152.997 189.71 153.292 186.504 153.71C184.873 153.923 184.341 153.262 184.243 152.481C184.136 153.482 184.447 154.601 186.504 154.333C190.082 153.866 191.786 153.554 191.616 151.686C191.613 151.657 191.61 151.627 191.607 151.597Z" fill="white"/>
<g opacity="0.1">
<path opacity="0.1" d="M196.775 65.7796C195.616 65.8866 194.331 65.6857 193.549 64.8502C192.132 63.3355 192.877 60.3758 191.011 59.4209C190.62 60.0822 189.542 60.0771 188.959 59.5657C188.376 59.0543 188.199 58.2358 188.19 57.4739C188.181 56.7121 188.306 55.9448 188.188 55.1915C187.971 53.8146 186.954 52.5091 187.301 51.1574C187.638 49.8447 189.202 48.8881 189.027 47.5463C189.013 47.3956 188.959 47.2511 188.869 47.127C188.52 46.6804 187.807 46.9022 187.239 47.0119C185.711 47.2577 184.23 46.3735 183.771 44.9411C179.929 48.5215 173.589 44.1687 176.3 40.8674C172.069 44.1967 179.01 49.4021 183.107 45.5835C183.567 47.0159 185.048 47.9001 186.576 47.6543C187.143 47.5446 187.856 47.3228 188.206 47.7694C188.295 47.8935 188.35 48.038 188.363 48.1887C188.539 49.5305 186.975 50.4871 186.638 51.7997C186.291 53.1514 187.308 54.457 187.524 55.8339C187.643 56.5871 187.518 57.3545 187.527 58.1163C187.535 58.8782 187.712 59.6966 188.295 60.2081C188.879 60.7195 189.957 60.7246 190.348 60.0633C192.214 61.0182 191.469 63.9779 192.886 65.4926C193.667 66.328 194.953 66.529 196.112 66.4219C196.383 66.418 196.648 66.3354 196.87 66.1849C197.014 66.0578 197.12 65.8954 197.176 65.7148C197.045 65.7477 196.911 65.7694 196.775 65.7796Z" fill="black"/>
<path opacity="0.1" d="M183.293 36.3082C183.35 36.2257 183.406 36.1399 183.462 36.0549C183.448 36.0606 183.434 36.0647 183.421 36.071C183.055 36.2432 182.856 36.6231 182.63 36.9505C182.552 37.0632 182.47 37.171 182.383 37.2739C182.732 36.9957 183.039 36.6705 183.293 36.3082Z" fill="black"/>
</g>
<path opacity="0.1" d="M174.991 81.2686C174.991 81.2686 174.624 82.4925 177.032 83.0364C179.44 83.5804 174.991 81.2686 174.991 81.2686Z" fill="black"/>
<path opacity="0.1" d="M173.434 84.9702C173.434 84.9702 171.902 86.15 175.598 88.1991C179.294 90.2482 173.434 84.9702 173.434 84.9702Z" fill="black"/>
<path opacity="0.1" d="M170.344 102.552C170.344 102.552 174.378 101.574 174.929 100.106C175.481 98.6375 170.344 102.552 170.344 102.552Z" fill="black"/>
<path opacity="0.1" d="M170.344 122.91C170.344 122.91 171.935 123.963 172.942 123.823C173.95 123.682 170.344 122.91 170.344 122.91Z" fill="black"/>
<path opacity="0.1" d="M171.27 124.761C171.27 124.761 171.837 125.563 172.878 125.678C173.919 125.792 171.27 124.761 171.27 124.761Z" fill="black"/>
<path opacity="0.0498465" d="M50.9712 161.457C73.4986 161.457 91.7608 158.834 91.7608 155.599C91.7608 152.364 73.4986 149.741 50.9712 149.741C28.4437 149.741 10.1816 152.364 10.1816 155.599C10.1816 158.834 28.4437 161.457 50.9712 161.457Z" fill="black"/>
<path d="M48.4556 107.529C47.2165 107.942 46.0938 108.909 45.8401 110.175C45.7224 110.763 45.7946 111.373 45.6956 111.964C45.466 113.333 44.3771 114.379 43.3727 115.351C42.3683 116.322 41.3311 117.451 41.2578 118.838C41.1776 120.356 42.2927 121.778 42.0997 123.286C41.8756 125.039 40.0011 126.174 39.5377 127.88C39.2283 129.019 39.6074 130.246 40.2312 131.252C41.42 133.168 43.4519 134.47 45.6157 135.167C47.7795 135.865 50.084 136.011 52.3601 136.035C55.1315 136.064 58.1405 135.829 60.2228 134.023C61.4123 132.982 62.1592 131.536 62.314 129.974C62.5118 127.882 61.6275 125.721 62.2375 123.708C62.6213 122.441 63.584 121.284 63.4404 119.97C63.2999 118.684 62.1629 117.773 61.3828 116.735C60.6545 115.765 60.2126 114.62 59.7794 113.491L58.2975 109.629C58.0061 108.87 57.6862 108.071 57.037 107.573C55.8215 106.64 53.8672 106.823 52.4459 107.016C51.1275 107.194 49.7236 107.106 48.4556 107.529Z" fill="#2F2E41"/>
<path d="M50.0463 118.964C50.0463 118.964 50.7032 121.072 45.7761 123.505C40.8489 125.937 46.2688 128.532 46.2688 128.532L52.0171 129.829C52.0171 129.829 57.9297 129.018 58.5867 128.045C59.2436 127.072 60.3933 123.829 60.0648 123.343C59.819 122.996 59.5443 122.671 59.2436 122.37C59.2436 122.37 55.3019 121.721 55.4661 119.937C55.6304 118.154 50.0463 118.964 50.0463 118.964Z" fill="#E46B69"/>
<path d="M52.1228 121.636C55.0254 121.636 57.3785 119.313 57.3785 116.447C57.3785 113.581 55.0254 111.258 52.1228 111.258C49.2202 111.258 46.8672 113.581 46.8672 116.447C46.8672 119.313 49.2202 121.636 52.1228 121.636Z" fill="#F77572"/>
<path d="M52.5072 128.123C52.5072 128.123 46.1777 127.666 46.0577 123.355C46.0577 123.355 43.8025 123.097 43.1456 123.745C42.4886 124.394 40.3535 124.88 40.3535 126.502C40.3535 128.123 43.9668 132.988 43.9668 132.988C43.9668 132.988 45.9376 139.474 45.1164 140.61C44.2952 141.745 44.131 144.664 44.131 144.664C44.131 144.664 52.3833 145.065 53.6972 145.714C55.0111 146.362 60.6735 145.846 61.002 145.198C61.3305 144.549 60.2264 135.907 60.2264 135.907C60.2264 135.907 61.7045 133.961 61.3761 131.691L65.3178 127.151C65.3178 127.151 63.8396 122.772 61.5403 122.772C61.5403 122.772 58.4198 121.962 58.3376 122.367C58.2555 122.772 59.8979 127.313 52.5072 128.123Z" fill="#17A88C"/>
<path d="M55.5977 144.657V138.179C55.5977 137.668 55.1834 137.254 54.6723 137.254H50.9708C50.4597 137.254 50.0454 137.668 50.0454 138.179V144.657C50.0454 145.168 50.4597 145.582 50.9708 145.582H54.6723C55.1834 145.582 55.5977 145.168 55.5977 144.657Z" fill="#3D3D3D"/>
<path d="M37.002 141.792C37.002 141.792 38.4801 144.062 42.2576 144.548C42.7947 144.617 44.0059 144.838 45.4214 145.059C47.5418 145.391 50.1204 145.725 51.5771 145.556C52.9006 145.402 51.5507 143.989 52.1165 143.725C52.6377 143.481 50.0894 142.531 50.1551 142.415C50.2559 142.237 46.4533 143.502 46.3636 143.413C46.0351 143.089 42.0934 141.629 42.0934 141.629L39.794 139.846L37.002 141.792Z" fill="#F77572"/>
<path d="M64.3881 140.017L59.9346 143.204C59.9346 143.204 58.0539 142.42 56.2203 142.415C54.1478 142.409 52.1508 143.224 53.2837 144.084C53.6387 144.354 54.5847 144.206 54.4446 144.421C54.2186 144.769 53.8275 145.037 54.8175 145.198C56.9046 145.536 62.5624 145.474 62.5624 145.474L66.3399 143.69L64.3881 140.017Z" fill="#F77572"/>
<path d="M43.1039 144.194C42.6789 143.352 39.0607 153.811 43.8236 155.271C48.5865 156.73 61.7256 156.406 64.6819 154.46C67.6382 152.514 68.4594 149.919 67.9667 149.109C67.4739 148.298 64.1892 146.028 61.8898 145.866C59.5905 145.703 43.5289 145.036 43.1039 144.194Z" fill="#2F2E41"/>
<path opacity="0.05" d="M42.86 145.086C42.7585 144.132 39.0608 153.811 43.8237 155.271C48.5866 156.73 61.7257 156.406 64.682 154.46C67.6383 152.514 68.4595 149.919 67.9668 149.109C67.4741 148.298 63.9109 145.36 61.6115 145.198C59.3122 145.036 42.9615 146.04 42.86 145.086Z" fill="black"/>
<path d="M61.0335 145.079C61.0335 145.079 74.9467 140.106 74.7824 146.106C74.6182 152.106 65.9135 153.727 65.9135 153.727L63.2857 154.052L48.8327 154.538C48.8327 154.538 49.3255 151.944 48.1758 151.619C48.1758 151.619 51.9533 150.646 52.1175 150.484C52.2817 150.322 61.6433 147.079 62.3003 146.917C62.9572 146.755 64.9281 145.457 66.4063 145.619C66.4063 145.619 68.0486 144.322 69.8553 144.647L64.7639 144.971L61.0335 145.079Z" fill="#2F2E41"/>
<path opacity="0.1" d="M61.0335 145.079C61.0335 145.079 74.9467 140.106 74.7824 146.106C74.6182 152.106 65.9135 153.727 65.9135 153.727L63.2857 154.052L48.8327 154.538C48.8327 154.538 49.3255 151.944 48.1758 151.619C48.1758 151.619 51.9533 150.646 52.1175 150.484C52.2817 150.322 61.6433 147.079 62.3003 146.917C62.9572 146.755 64.9281 145.457 66.4063 145.619C66.4063 145.619 68.0486 144.322 69.8553 144.647L64.7639 144.971L61.0335 145.079Z" fill="black"/>
<path d="M59.3516 145.517L61.1058 149.469L71.7813 145.739L72.6025 143.631L69.8103 143.144L64.1971 144.117L61.7626 144.766L59.3516 145.517Z" fill="#2F2E41"/>
<path opacity="0.1" d="M52.7695 145.198L61.1048 149.469L71.7803 145.739L72.6015 143.631L69.8093 143.144L64.1962 144.117L61.7616 144.766H58.2434L52.7695 145.198Z" fill="black"/>
<path d="M36.6047 151.234C36.6047 151.234 40.4165 154.254 44.0297 155.227C47.643 156.2 48.9226 155.775 48.9226 155.775L47.773 151.234L47.2802 148.315L45.1451 146.856L40.8749 144.91L35.7835 143.288C35.7835 143.288 33.6484 142.964 33.6484 143.288C33.6484 143.613 35.6193 148.477 35.6193 148.477L36.6047 151.234Z" fill="#2F2E41"/>
<path d="M40.3535 153.065C40.3535 153.065 41.0105 157.768 41.8317 158.092C42.6529 158.417 45.1164 157.768 45.7734 157.444C46.4303 157.119 48.6634 155.623 48.6634 155.623C48.6634 155.623 40.8462 152.741 40.3535 153.065Z" fill="#F2F2F2"/>
<path d="M54.2071 153.04L57.3276 153.526L56.9991 157.256L52.6465 156.212L54.2071 153.04Z" fill="#FFB9B9"/>
<path d="M56.6434 154.699C56.6434 154.699 55.1809 156.418 56.6591 157.39L57.6445 158.201C57.6445 158.201 60.9293 158.85 61.2578 159.174C61.5862 159.498 62.9002 158.688 62.9002 158.688C62.9002 158.688 63.0644 153.823 62.9002 153.499C62.7359 153.174 60.7651 152.85 60.6008 153.174C60.4366 153.499 58.4657 153.985 57.316 153.661L56.6434 154.699Z" fill="#A4A4A4"/>
<path d="M44.3935 146.796C44.3935 146.796 32.8968 140.148 31.0902 142.58C29.2836 145.012 27.3127 148.418 32.5683 151.012C37.824 153.607 54.2478 158.958 54.2478 158.958C54.2478 158.958 56.7114 155.228 56.7114 154.255C56.7114 154.255 48.0068 150.364 46.5286 150.039C45.0505 149.715 39.1379 145.985 38.3167 145.661C37.4955 145.337 36.3458 144.364 36.3458 144.364L44.3935 146.796Z" fill="#2F2E41"/>
<path d="M41.2819 125.552L40.6249 126.038C40.6249 126.038 39.1468 129.768 38.9825 131.876C38.8183 133.984 36.8474 140.47 37.0117 141.281C37.1759 142.092 37.3401 142.741 38.3256 143.551C38.3256 143.551 39.6395 140.633 41.9388 141.119L44.7309 131.065L41.2819 125.552Z" fill="#17A88C"/>
<path d="M63.5893 125.552L64.9032 127.011C64.9032 127.011 65.7244 128.957 65.7244 129.444C65.7244 129.93 67.3668 137.065 67.531 137.389C67.6952 137.714 68.3522 141.768 67.531 142.741C66.7098 143.714 65.2317 144.362 65.2317 144.362C65.2317 144.362 66.2171 140.957 63.0966 140.795L63.425 139.498L60.4688 129.768L63.5893 125.552Z" fill="#17A88C"/>
<path d="M52.5244 117.273C55.6487 117.273 58.1815 115.927 58.1815 114.266C58.1815 112.605 55.6487 111.258 52.5244 111.258C49.4 111.258 46.8672 112.605 46.8672 114.266C46.8672 115.927 49.4 117.273 52.5244 117.273Z" fill="#2F2E41"/>
<path fill-rule="evenodd" clip-rule="evenodd" d="M78.2694 157.149C78.0881 156.98 77.8988 156.815 77.6902 156.655C76.5655 156.332 75.2071 156.184 73.6426 156.233C74.5633 156.433 75.4825 156.714 76.3124 157.149H78.2694Z" fill="#270243"/>
<path fill-rule="evenodd" clip-rule="evenodd" d="M78.0241 157.149H80.1206C79.1075 155.71 77.4333 154.55 74.5684 154.373C76.0728 155.039 77.1941 156.027 78.0241 157.149Z" fill="#2A1041"/>
<path fill-rule="evenodd" clip-rule="evenodd" d="M78.5104 155.446C79.2297 155.925 79.7871 156.512 80.2268 157.149H81.045C81.0454 157.147 81.0461 157.145 81.0464 157.143C80.2071 154.539 78.2923 152.899 75.4941 152.522C76.7356 153.161 77.773 154.062 78.5104 155.446Z" fill="#0C0E35"/>
<path fill-rule="evenodd" clip-rule="evenodd" d="M81.0465 156.038C80.9747 154.158 80.8285 152.591 80.5883 151.597C80.3429 152.584 80.1944 154.137 80.1211 155.998C80.2054 156.354 80.2799 156.729 80.3411 157.128C80.3409 157.13 80.3407 157.132 80.3402 157.134H80.8303C80.8316 157.144 80.8326 157.151 80.8326 157.149C80.8924 156.757 80.9647 156.388 81.0465 156.038Z" fill="#2A1041"/>
<path fill-rule="evenodd" clip-rule="evenodd" d="M85.7796 157.149C86.6093 156.714 87.5287 156.433 88.4491 156.233C86.8852 156.184 85.5268 156.332 84.402 156.655C84.1931 156.815 84.0031 156.98 83.8223 157.149H85.7796Z" fill="#270243"/>
<path fill-rule="evenodd" clip-rule="evenodd" d="M84.0661 157.149C84.896 156.027 86.018 155.039 87.5229 154.373C84.6582 154.55 82.9843 155.711 81.9707 157.149H84.0661Z" fill="#0C0E35"/>
<path fill-rule="evenodd" clip-rule="evenodd" d="M81.7767 157.149C82.243 156.472 82.8438 155.853 83.6292 155.358C84.3636 154.024 85.3824 153.147 86.5972 152.522C83.7974 152.899 81.8824 154.541 81.0449 157.149H81.7767Z" fill="#270243"/>
<path fill-rule="evenodd" clip-rule="evenodd" d="M152.299 155.299C152.117 155.13 151.928 154.964 151.719 154.804C150.595 154.481 149.236 154.333 147.672 154.383C148.593 154.582 149.512 154.864 150.342 155.299H152.299Z" fill="#270243"/>
<path fill-rule="evenodd" clip-rule="evenodd" d="M152.053 155.299H154.15C153.137 153.86 151.463 152.7 148.598 152.522C150.102 153.188 151.223 154.177 152.053 155.299Z" fill="#2A1041"/>
<path fill-rule="evenodd" clip-rule="evenodd" d="M152.54 153.596C153.259 154.075 153.816 154.661 154.256 155.298H155.074C155.075 155.297 155.075 155.295 155.076 155.292C154.236 152.688 152.322 151.048 149.523 150.672C150.765 151.31 151.802 152.212 152.54 153.596Z" fill="#0C0E35"/>
<path fill-rule="evenodd" clip-rule="evenodd" d="M155.076 154.188C155.004 152.307 154.858 150.74 154.618 149.746C154.372 150.733 154.224 152.286 154.15 154.147C154.235 154.503 154.309 154.878 154.37 155.277C154.37 155.279 154.37 155.282 154.37 155.283H154.86C154.861 155.293 154.862 155.3 154.862 155.298C154.922 154.906 154.994 154.537 155.076 154.188Z" fill="#2A1041"/>
<path fill-rule="evenodd" clip-rule="evenodd" d="M159.809 155.299C160.639 154.864 161.558 154.582 162.478 154.383C160.915 154.333 159.556 154.481 158.431 154.804C158.222 154.964 158.032 155.13 157.852 155.299H159.809Z" fill="#270243"/>
<path fill-rule="evenodd" clip-rule="evenodd" d="M158.095 155.299C158.925 154.177 160.047 153.188 161.552 152.522C158.687 152.7 157.014 153.86 156 155.299H158.095Z" fill="#0C0E35"/>
<path fill-rule="evenodd" clip-rule="evenodd" d="M155.806 155.298C156.272 154.622 156.873 154.003 157.659 153.508C158.393 152.173 159.412 151.296 160.626 150.672C157.827 151.048 155.912 152.691 155.074 155.298H155.806Z" fill="#270243"/>
<path fill-rule="evenodd" clip-rule="evenodd" d="M208.746 159.925C208.601 159.756 208.45 159.591 208.283 159.431C207.383 159.108 206.297 158.96 205.045 159.009C205.782 159.209 206.517 159.491 207.181 159.925H208.746Z" fill="#270243"/>
<path fill-rule="evenodd" clip-rule="evenodd" d="M208.851 159.926H210.598C209.753 158.487 208.358 157.327 205.971 157.149C207.224 157.815 208.159 158.804 208.851 159.926Z" fill="#2A1041"/>
<path fill-rule="evenodd" clip-rule="evenodd" d="M209.41 158.563C210.009 158.946 210.474 159.416 210.84 159.925H211.522C211.523 159.924 211.523 159.922 211.523 159.92C210.824 157.837 209.228 156.525 206.896 156.224C207.931 156.735 208.796 157.456 209.41 158.563Z" fill="#0C0E35"/>
<path fill-rule="evenodd" clip-rule="evenodd" d="M211.523 159C211.451 157.433 211.305 156.127 211.065 155.299C210.819 156.121 210.671 157.415 210.598 158.966C210.682 159.263 210.756 159.575 210.818 159.908C210.817 159.909 210.817 159.911 210.817 159.913H211.307C211.308 159.921 211.309 159.927 211.309 159.925C211.369 159.598 211.441 159.291 211.523 159Z" fill="#2A1041"/>
<path fill-rule="evenodd" clip-rule="evenodd" d="M215.865 159.925C216.528 159.491 217.264 159.209 218 159.009C216.749 158.96 215.662 159.108 214.763 159.431C214.596 159.591 214.444 159.756 214.299 159.925H215.865Z" fill="#270243"/>
<path fill-rule="evenodd" clip-rule="evenodd" d="M214.193 159.926C214.885 158.804 215.82 157.815 217.074 157.149C214.687 157.327 213.292 158.487 212.447 159.926H214.193Z" fill="#0C0E35"/>
<path fill-rule="evenodd" clip-rule="evenodd" d="M212.133 159.925C212.522 159.384 213.022 158.889 213.677 158.493C214.289 157.425 215.138 156.723 216.15 156.224C213.817 156.525 212.221 157.839 211.523 159.925H212.133Z" fill="#270243"/>
<defs>
<linearGradient id="paint0_linear" x1="182.836" y1="157.149" x2="182.836" y2="35" gradientUnits="userSpaceOnUse">
<stop stop-color="#808080" stop-opacity="0.25"/>
<stop offset="0.53514" stop-color="#808080" stop-opacity="0.12"/>
<stop offset="1" stop-color="#808080" stop-opacity="0.1"/>
</linearGradient>
</defs>
</svg>
